<?xml version="1.0" encoding="UTF-8"?><svg id="a" xmlns="http://www.w3.org/2000/svg" xmlns:xlink="http://www.w3.org/1999/xlink" viewBox="0 0 268.87 70.76"><defs><style>.f{fill:none;stroke-width:7px;}.f,.g{stroke:#fff;}.h{fill:#939598;stroke:#1c75bc;}.g{fill:#fff;stroke-miterlimit:10;}.i{filter:url(#b);}.j{filter:url(#d);}.k{fill:#00aeef;}.l{fill:#071a19;}</style><filter id="b" x="-5.73" y="1.98" width="156.74" height="45.36" filterUnits="userSpaceOnUse"><feOffset dx="1" dy="1"/><feGaussianBlur result="c" stdDeviation="0"/><feFlood flood-color="#231f20" flood-opacity="1"/><feComposite in2="c" operator="in"/><feComposite in="SourceGraphic"/></filter><filter id="d" x="139.24" y="-5.76" width="109.6" height="56.39" filterUnits="userSpaceOnUse"><feOffset dx="1" dy="1"/><feGaussianBlur result="e" stdDeviation="0"/><feFlood flood-color="#231f20" flood-opacity="1"/><feComposite in2="e" operator="in"/><feComposite in="SourceGraphic"/></filter></defs><g class="i"><path class="h" d="M1.9,36.62c.61.35,1.45.66,2.52.91,1.07.25,2.16.4,3.27.44,2.76-.1,4.54-.8,5.31-2.09.22-.36.32-.71.32-1.06,0-.68-.37-1.24-1.11-1.68-.74-.44-1.93-1.02-3.58-1.75-1.65-.73-2.9-1.43-3.75-2.12-.85-.69-1.3-1.56-1.34-2.61.1-.19.15-.39.15-.61.31-1.87,1.67-3.36,4.09-4.46,2.42-1.1,5.18-1.65,8.27-1.65,2.47,0,4.64.33,6.5.98l-1.09,3.6c-1.21-.71-3.01-1.06-5.41-1.06-1.24,0-2.33.14-3.3.41-.96.27-1.63.7-2.02,1.27-.22.29-.33.59-.33.9,0,.58.29,1.03.88,1.36.58.33,1.76.9,3.53,1.69,1.76.8,3.08,1.56,3.94,2.3.86.74,1.29,1.68,1.29,2.8,0,1.25-.56,2.43-1.68,3.54-1.12,1.1-2.68,1.98-4.67,2.63-1.99.65-4.21.97-6.64.97-2.23,0-4.37-.33-6.42-.99l1.26-3.72Z"/><path class="h" d="M18.69,41.01L28.95,6.98h7.36l-4.78,15.7h.15c2.26-1.78,5.15-2.66,8.7-2.66h2.2c2.92.2,4.38,1.43,4.38,3.68,0,.37-.16,1.36-.48,2.95l-4.22,14.35h-7.36l4.3-14.51c0-.13.03-.29.09-.5.06-.21.09-.38.09-.52,0-1.4-1.12-2.09-3.36-2.09-3.13,0-5.1,1.23-5.88,3.68l-4.07,13.94h-7.36Z"/><path class="h" d="M61.91,38.39c-.97.97-2.16,1.7-3.59,2.2-1.43.5-2.94.75-4.54.75-1.86,0-3.28-.26-4.27-.77-.99-.52-1.63-1.11-1.95-1.77-.31-.66-.62-1.61-.91-2.83.1-2.28.58-4.63,1.44-7.05.86-2.42,1.89-4.24,3.1-5.45,2.3-2.35,5.23-3.52,8.77-3.52,1.72,0,3.25.28,4.59.84,1.34.56,2.05,1.17,2.13,1.83h.08l.63-2.34h7.5l-6.27,20.75h-7.36l.79-2.62h-.15ZM57.45,25.38c-.68.89-1.39,2.4-2.13,4.54-.75,2.14-1.16,3.84-1.23,5.1.2.55.38,1.02.54,1.42.15.4.45.75.89,1.03.44.29,1.14.45,2.09.5,1.13-.04,2.2-.35,3.2-.92,1-.58,1.73-1.34,2.21-2.28,1.62-3.65,2.43-6.56,2.43-8.73,0-.85-.32-1.5-.97-1.93-.65-.43-1.5-.65-2.56-.65-.82,0-1.63.16-2.44.49-.81.33-1.48.8-2.02,1.43Z"/><path class="h" d="M87.82,38.39c-.7.88-1.85,1.59-3.45,2.14-1.6.54-3.29.82-5.06.82-1.89,0-3.32-.29-4.26-.88-.95-.59-1.55-1.25-1.81-1.99-.26-.74-.48-1.74-.66-3,.09-1.95.58-4.05,1.49-6.3.9-2.25,1.71-3.85,2.42-4.81,1.11-1.47,2.53-2.57,4.26-3.31,1.73-.74,3.49-1.11,5.29-1.11,1.62,0,3.02.24,4.21.72,1.19.48,1.98,1.13,2.36,1.94h.08l4.77-15.62h7.35l-10.26,34.03h-7.51l.93-2.62h-.15ZM83.04,25.88c-.66,1.02-1.31,2.51-1.96,4.45-.64,1.94-1,3.51-1.08,4.69.14.49.28.95.41,1.39.13.43.4.8.8,1.11.4.31,1.07.49,2,.54.99-.04,2-.31,3.01-.81,1.01-.5,1.75-1.09,2.23-1.77.7-.95,1.36-2.51,1.98-4.69.62-2.18.93-3.81.93-4.9-.08-.79-.43-1.4-1.06-1.84-.63-.44-1.46-.66-2.47-.66-.92,0-1.81.21-2.67.64-.87.43-1.57,1.05-2.1,1.86Z"/><path class="h" d="M106.7,31.41c-.29.84-.55,1.99-.78,3.45.14,2.02,1.31,3.04,3.52,3.04,1.36,0,2.57-.32,3.61-.95,1.04-.63,1.74-1.6,2.1-2.91h6.8c-.89,2.61-2.59,4.47-5.1,5.57-2.51,1.11-5.38,1.68-8.6,1.73-6.34,0-9.6-2.13-9.76-6.4.22-.83.32-1.45.32-1.85.29-1.91.95-3.87,1.97-5.86,1.02-1.99,2.64-3.7,4.88-5.14,2.23-1.44,5.14-2.15,8.72-2.15,3.54.07,6,.68,7.39,1.83,1.39,1.15,2.08,2.71,2.08,4.68,0,.45-.04.97-.13,1.57-.09.6-.19,1.14-.29,1.62-.1.49-.22,1.08-.36,1.77h-16.36ZM107.64,28.67h8.68c.32-.92.48-1.74.48-2.46,0-1.88-1.12-2.82-3.36-2.82-3.1,0-5.03,1.76-5.79,5.29Z"/><path class="h" d="M123.18,36.62c.61.35,1.45.66,2.52.91,1.07.25,2.16.4,3.27.44,2.76-.1,4.53-.8,5.31-2.09.22-.36.32-.71.32-1.06,0-.68-.37-1.24-1.11-1.68-.74-.44-1.93-1.02-3.58-1.75-1.65-.73-2.9-1.43-3.76-2.12-.85-.69-1.3-1.56-1.34-2.61.1-.19.15-.39.15-.61.31-1.87,1.67-3.36,4.09-4.46,2.42-1.1,5.18-1.65,8.27-1.65,2.47,0,4.64.33,6.5.98l-1.09,3.6c-1.21-.71-3.01-1.06-5.41-1.06-1.24,0-2.34.14-3.3.41-.96.27-1.63.7-2.02,1.27-.22.29-.32.59-.32.9,0,.58.29,1.03.88,1.36.59.33,1.76.9,3.53,1.69,1.76.8,3.08,1.56,3.94,2.3.86.74,1.29,1.68,1.29,2.8,0,1.25-.56,2.43-1.68,3.54-1.12,1.1-2.68,1.98-4.67,2.63-1.99.65-4.21.97-6.64.97-2.23,0-4.37-.33-6.42-.99l1.26-3.72Z"/></g><g class="j"><path class="g" d="M145.67,43.11L156.46.76h7.74l-4.86,19.44h.16c.86-.99,2.07-1.79,3.64-2.4,1.57-.61,3.18-.92,4.83-.92,2.21,0,3.99.6,5.35,1.79,1.36,1.2,2.04,3.1,2.04,5.7-.12,1.62-.39,3.28-.82,4.97-.43,1.7-.95,3.31-1.58,4.83-.62,1.52-1.25,2.79-1.88,3.8-1.16,1.91-2.63,3.31-4.4,4.19-1.77.88-3.65,1.33-5.64,1.33-1.73,0-3.24-.35-4.54-1.05-1.3-.7-2.04-1.57-2.21-2.62h-.16l-.74,3.26h-7.73ZM158.34,24.9c-.62,1.08-1.22,2.8-1.82,5.15-.6,2.36-.9,4.16-.9,5.41s.32,2.16.95,2.81c.63.66,1.44,1.01,2.43,1.06,1.33-.05,2.6-.53,3.83-1.43,1.23-.91,2.04-2.06,2.43-3.46,1.14-4.2,1.85-7.09,2.13-8.68,0-1.52-.33-2.66-.99-3.43-.66-.77-1.56-1.15-2.71-1.15-2.32,0-4.1,1.24-5.35,3.72Z"/><path class="k" d="M180.37,0l7.58,42.61-7.46,1.26-7.58-42.61,7.46-1.26Z"/><path class="k" d="M191.86,17.29h7.89l-4.68,17.86c0,.2-.11.66-.34,1.38.19,1.74,1.59,2.6,4.2,2.6,3.08,0,4.89-1.23,5.42-3.68l4.7-18.17h7.73l-4.7,18.42c-.35,1.32-.99,2.56-1.94,3.71-.94,1.15-2.31,2.11-4.09,2.86-1.78.76-3.99,1.17-6.63,1.23-4.28,0-7.43-.43-9.44-1.28-2.01-.86-3.03-2.42-3.07-4.68.07-.75.21-1.61.42-2.6l4.52-17.66Z"/><path class="k" d="M224.82,31.16c-.31,1.05-.58,2.48-.82,4.29.15,2.52,1.38,3.78,3.69,3.78,1.43,0,2.7-.39,3.8-1.18,1.1-.79,1.84-1.99,2.21-3.62h7.15c-.94,3.25-2.72,5.56-5.36,6.94-2.64,1.38-5.65,2.09-9.04,2.15-6.67,0-10.09-2.66-10.26-7.97.23-1.04.34-1.81.34-2.31.31-2.38,1-4.81,2.07-7.29,1.07-2.48,2.78-4.61,5.13-6.39,2.35-1.78,5.4-2.68,9.16-2.68,3.72.09,6.31.85,7.77,2.28,1.46,1.43,2.19,3.37,2.19,5.82,0,.56-.05,1.2-.14,1.95-.09.74-.19,1.42-.3,2.02-.11.6-.24,1.34-.38,2.2h-17.19ZM225.81,27.75h9.12c.33-1.15.5-2.17.5-3.06,0-2.34-1.18-3.51-3.53-3.51-3.25,0-5.28,2.19-6.08,6.57Z"/></g><polygon class="f" points="251.54 46.7 254.52 52.55 261.18 53.48 256.36 58.03 257.5 64.46 251.54 61.42 245.58 64.46 246.72 58.03 241.9 53.48 248.56 52.55 251.54 46.7"/><polygon class="l" points="251.54 46.7 254.52 52.55 261.18 53.48 256.36 58.03 257.5 64.46 251.54 61.42 245.58 64.46 246.72 58.03 241.9 53.48 248.56 52.55 251.54 46.7"/></svg>