<?xml version="1.0" encoding="UTF-8"?>
<svg id="Layer_1" data-name="Layer 1" xmlns="http://www.w3.org/2000/svg" width="242.83309" height="44.01928" xmlns:xlink="http://www.w3.org/1999/xlink" viewBox="0 0 242.83309 44.01928">
  <defs>
    <filter id="drop-shadow-1" x="-5.09174" y="2.47692" width="155.48425" height="44.36084" filterUnits="userSpaceOnUse">
      <feOffset dx="1" dy="1"/>
      <feGaussianBlur result="blur" stdDeviation="0"/>
      <feFlood flood-color="#231f20" flood-opacity="1"/>
      <feComposite in2="blur" operator="in"/>
      <feComposite in="SourceGraphic"/>
    </filter>
    <filter id="drop-shadow-2" x="139.87867" y="-5.18205" width="108.45442" height="55.23487" filterUnits="userSpaceOnUse">
      <feOffset dx="1" dy="1"/>
      <feGaussianBlur result="blur-2" stdDeviation="0"/>
      <feFlood flood-color="#231f20" flood-opacity="1"/>
      <feComposite in2="blur-2" operator="in"/>
      <feComposite in="SourceGraphic"/>
    </filter>
  </defs>
  <g filter="url(#drop-shadow-1)">
    <path d="M1.89772,36.62406c.61155.35264,1.45245.65646,2.52271.91067,1.07016.25411,2.15852.40127,3.26791.43953,2.76341-.09941,4.53504-.79697,5.31087-2.09169.21693-.3593.32495-.7138.32495-1.06067,0-.68033-.36889-1.23934-1.10842-1.68083-.73777-.43953-1.9322-1.02339-3.5824-1.75343-1.6502-.72613-2.90196-1.43327-3.75431-2.12036-.85333-.68699-1.29951-1.55842-1.33777-2.61145.10225-.18826.15294-.39178.15294-.61253.30578-1.87476,1.6683-3.35969,4.08876-4.45803,2.42036-1.09697,5.17809-1.6455,8.27399-1.6455,2.47202,0,4.63729.32583,6.49776.97994l-1.08934,3.60431c-1.21165-.70803-3.0138-1.06165-5.40843-1.06165-1.23552,0-2.33435.13718-3.2956.40998-.96223.27329-1.63405.69756-2.01527,1.27182-.21791.28669-.32583.58572-.32583.89912,0,.57525.29237,1.02818.87906,1.3636.58483.33346,1.76018.89628,3.52506,1.69032,1.76488.79501,3.07682,1.56135,3.9368,2.30098.85998.74149,1.28904,1.67505,1.28904,2.80353,0,1.25372-.55997,2.43278-1.68083,3.53748-1.12084,1.1046-2.6774,1.98171-4.67261,2.6277-1.99325.64687-4.20627.97084-6.63905.97084-2.23025,0-4.36978-.33063-6.42125-.9909l1.26126-3.72281Z" fill="#939598" stroke="#1c75bc"/>
    <path d="M18.68573,41.00714L28.94818,6.97692h7.35676l-4.7777,15.70483h.15285c2.25606-1.77544,5.15235-2.66165,8.69551-2.66165h2.1958c2.91723.19971,4.37731,1.42613,4.37731,3.6821,0,.37368-.16047,1.35783-.47867,2.95363l-4.22261,14.3513h-7.35667l4.29991-14.51187c0-.12515.02867-.29423.08601-.50166.05734-.20538.08601-.37838.08601-.51879,0-1.39511-1.12182-2.09267-3.36449-2.09267-3.13317,0-5.0959,1.22789-5.88426,3.68269l-4.07056,13.9423h-7.35765Z" fill="#939598" stroke="#1c75bc"/>
    <path d="M61.90588,38.38609c-.96605.96507-2.16243,1.70088-3.58719,2.20059-1.42564.50264-2.93924.75108-4.54257.75108-1.85764,0-3.27946-.25802-4.26557-.77495-.98611-.51791-1.63396-1.10656-1.9455-1.77163-.31341-.66409-.61536-1.60627-.90685-2.8274.10039-2.28181.58298-4.6325,1.44198-7.05099.859-2.4184,1.89384-4.23592,3.10167-5.4504,2.3048-2.34873,5.22585-3.52261,8.76519-3.52261,1.719,0,3.24981.27857,4.59326.83523,1.34355.55705,2.05255,1.16615,2.12897,1.82642h.07554l.63064-2.34247h7.50393l-6.26646,20.74819h-7.35775l.78552-2.62104h-.15479ZM57.45401,25.38303c-.67564.88963-1.38562,2.40226-2.12995,4.54463-.74628,2.14325-1.15617,3.84032-1.23268,5.0959.20352.54746.3823,1.01957.53513,1.41899.15294.40127.44912.74628.88679,1.0319.44139.28669,1.13797.45391,2.09355.49981,1.13425-.03826,2.19961-.34687,3.20206-.92495.99756-.5772,1.73426-1.33679,2.20539-2.27809,1.61869-3.65392,2.42701-6.5645,2.42701-8.72791,0-.85235-.32485-1.49638-.97466-1.93014-.64971-.43386-1.50402-.65078-2.56077-.65078-.81605,0-1.62828.16341-2.4367.49022-.80832.32681-1.47916.8046-2.01517,1.43043Z" fill="#939598" stroke="#1c75bc"/>
    <path d="M87.82014,38.38609c-.69942.88102-1.84992,1.59188-3.45422,2.1366-1.60245.54364-3.28807.81507-5.05676.81507-1.89482,0-3.3186-.29237-4.26459-.88004-.94981-.58669-1.55274-1.25176-1.8136-1.98856-.25988-.73669-.48063-1.73621-.65743-2.99658.08786-1.95499.58483-4.05431,1.48874-6.29982.90392-2.24648,1.71135-3.84795,2.42418-4.80931,1.10939-1.4682,2.5274-2.5728,4.26076-3.31429,1.73053-.73953,3.49345-1.1094,5.28798-1.1094,1.61683,0,3.01958.2408,4.21107.72485,1.19159.48346,1.97702,1.13082,2.35832,1.93679h.07642l4.77486-15.6245h7.35285l-10.26156,34.03021h-7.50864l.93454-2.62104h-.15293ZM83.0434,25.88372c-.66223,1.02153-1.31488,2.50549-1.95793,4.45001-.64402,1.94452-1.00333,3.50784-1.07975,4.68983.13953.49305.2771.95362.41086,1.38552.13376.42994.40137.80167.80264,1.11028.40137.30959,1.06644.48924,1.99718.53709.99275-.0411,1.99707-.31057,3.0089-.81321,1.01292-.49971,1.75441-1.09022,2.22554-1.77065.70137-.94785,1.36067-2.51302,1.97986-4.69355.61633-2.18347.92592-3.81459.92592-4.89531-.07642-.7864-.43092-1.40079-1.06165-1.8413-.62965-.44002-1.45528-.66028-2.47485-.66028-.91537,0-1.80784.2136-2.6736.64022-.86761.4271-1.56712,1.04922-2.10314,1.86135Z" fill="#939598" stroke="#1c75bc"/>
    <path d="M106.70363,31.40966c-.29246.8409-.55421,1.99042-.78356,3.44952.13953,2.0229,1.31194,3.0367,3.51733,3.0367,1.36165,0,2.56566-.31722,3.61097-.94883,1.04345-.63063,1.74394-1.60147,2.10226-2.91155h6.80148c-.89247,2.61145-2.59237,4.47007-5.10157,5.57369-2.51029,1.10558-5.37595,1.68268-8.59895,1.72858-6.34483,0-9.59943-2.13278-9.7647-6.40217.21693-.83317.32397-1.44951.32397-1.85186.29237-1.91204.94785-3.86606,1.96644-5.85745,1.01859-1.99042,2.64492-3.70275,4.87897-5.13553,2.23415-1.43523,5.13895-2.15098,8.71656-2.15098,3.53924.07221,6.00266.68278,7.39013,1.82946,1.38748,1.14707,2.08112,2.70705,2.08112,4.68025,0,.44618-.04393.96791-.13376,1.56517-.08885.5953-.18532,1.13807-.2866,1.62437-.10225.48542-.22368,1.07691-.36311,1.77065h-16.35698ZM107.64003,28.66729h8.67634c.31722-.92026.47779-1.741.47779-2.46243,0-1.88151-1.12182-2.82271-3.36351-2.82271-3.096,0-5.02623,1.76204-5.79062,5.28514Z" fill="#939598" stroke="#1c75bc"/>
    <path d="M123.18381,36.62406c.61067.35264,1.45148.65646,2.52173.91067,1.06928.25411,2.15852.40127,3.26791.43953,2.76439-.09941,4.53406-.79697,5.31185-2.09169.21694-.3593.32397-.7138.32397-1.06067,0-.68033-.36791-1.23934-1.10744-1.68083-.73963-.43953-1.93404-1.02339-3.5824-1.75343-1.6502-.72613-2.90098-1.43327-3.75529-2.12036-.85323-.68699-1.29951-1.55842-1.33777-2.61145.10137-.18826.15294-.39178.15294-.61253.30577-1.87476,1.6684-3.35969,4.08974-4.45803,2.42036-1.09697,5.17809-1.6455,8.27399-1.6455,2.47016,0,4.63631.32583,6.4968.97994l-1.08935,3.60431c-1.21067-.70803-3.0138-1.06165-5.40745-1.06165-1.23738,0-2.33533.13718-3.29658.40998-.96125.27329-1.63298.69756-2.01625,1.27182-.21682.28669-.32485.58572-.32485.89912,0,.57525.29335,1.02818.87818,1.3636.58572.33346,1.76204.89628,3.52692,1.69032,1.7639.79501,3.07584,1.56135,3.93583,2.30098.8591.74149,1.29001,1.67505,1.29001,2.80353,0,1.25372-.56096,2.43278-1.6818,3.53748-1.12084,1.1046-2.67838,1.98171-4.67252,2.6277-1.99237.64687-4.20637.97084-6.64013.97084-2.22926,0-4.36968-.33063-6.42027-.9909l1.26223-3.72281Z" fill="#939598" stroke="#1c75bc"/>
  </g>
  <g filter="url(#drop-shadow-2)">
    <path d="M145.66967,43.10841L156.46353.76448h7.73886l-4.85989,19.44045h.16155c.85519-.98797,2.06968-1.78728,3.63866-2.39648,1.57095-.61106,3.18005-.91683,4.82555-.91683,2.20539,0,3.98934.59814,5.35481,1.79404,1.36165,1.19589,2.04394,3.09688,2.04394,5.70461-.12045,1.61869-.39462,3.27652-.8227,4.97457-.43004,1.69697-.9546,3.30901-1.57672,4.8321-.623,1.52319-1.24795,2.7912-1.87858,3.80402-1.1638,1.91116-2.62965,3.30715-4.39639,4.19101-1.76781.88396-3.64737,1.3273-5.64248,1.3273-1.72672,0-3.24032-.35166-4.53788-1.05304-1.29862-.70137-2.03631-1.57378-2.21018-2.62202h-.15959l-.74345,3.2642h-7.72937ZM158.34396,24.89957c-.61634,1.07975-1.22398,2.79688-1.82026,5.14942-.59726,2.35539-.89628,4.15852-.89628,5.41126,0,1.22309.31624,2.15754.94599,2.814.63063.65744,1.4409,1.01008,2.43377,1.05969,1.32719-.04961,2.60479-.5274,3.83171-1.43043,1.22788-.90773,2.03532-2.06106,2.42514-3.46478,1.13992-4.19962,1.84991-7.09395,2.13181-8.68016,0-1.51928-.32867-2.66263-.98611-3.43034-.65744-.7683-1.56233-1.15196-2.71467-1.15196-2.32105,0-4.10413,1.24169-5.3511,3.7233Z" fill="#fff" stroke="#fff" stroke-miterlimit="10"/>
    <path d="M180.37111,0l7.57849,42.61057-7.45803,1.26126-7.57938-42.60861,7.45892-1.26321Z" fill="#00aeef"/>
    <path d="M191.86155,17.29055h7.8918l-4.67927,17.85914c0,.19971-.1137.6593-.3411,1.38171.1863,1.73523,1.58621,2.6048,4.19668,2.6048,3.07877,0,4.88573-1.22593,5.42271-3.67594l4.69747-18.16971h7.73133l-4.69844,18.41902c-.34873,1.32055-.99374,2.55705-1.93777,3.71234-.94315,1.15333-2.30676,2.10891-4.0869,2.86371-1.78112.75685-3.98934,1.16576-6.62575,1.23366-4.28367,0-7.43123-.4271-9.43789-1.28327-2.00852-.85617-3.03288-2.41566-3.073-4.68318.06683-.74531.20734-1.61488.42231-2.60284l4.51782-17.65943Z" fill="#00aeef"/>
    <path d="M224.82112,31.16406c-.30861,1.04922-.58189,2.47779-.82368,4.2914.14814,2.51879,1.37789,3.77917,3.69414,3.77917,1.43327,0,2.69942-.39374,3.79541-1.17818,1.09795-.78552,1.83562-1.99423,2.21019-3.62349h7.14746c-.9365,3.24697-2.72241,5.55941-5.36068,6.93534-2.63817,1.37505-5.65011,2.09081-9.0375,2.15098-6.66587,0-10.08672-2.65646-10.26059-7.96538.22642-1.03875.34012-1.80793.34012-2.30676.30871-2.38122.99765-4.80921,2.06781-7.2869,1.06928-2.47682,2.77877-4.60764,5.12751-6.39209,2.34678-1.78405,5.39972-2.67652,9.15884-2.67652,3.71898.09217,6.30754.85137,7.76566,2.2775,1.45822,1.4276,2.18728,3.36782,2.18728,5.82408,0,.55519-.04775,1.2049-.14051,1.94638-.09364.74345-.19296,1.41615-.3,2.02192-.1089.60489-.23503,1.33973-.38219,2.20255h-17.18928ZM225.80527,27.75085h9.11587c.33444-1.1457.50264-2.16713.50264-3.06341,0-2.33963-1.17916-3.51116-3.53357-3.51116-3.25461,0-5.28318,2.19247-6.08495,6.57457Z" fill="#00aeef"/>
  </g>
</svg>